<svg width="20" height="22" viewBox="0 0 20 22" fill="none" xmlns="http://www.w3.org/2000/svg">
<path d="M2.15992 18.4798H17.8399C18.6379 18.5598 19.2399 19.2398 19.2399 20.0598C19.2399 20.8578 18.6379 21.5398 17.8399 21.6198H2.15992C1.55992 21.6998 0.979922 21.3998 0.659922 20.8998C0.339922 20.3798 0.339922 19.7198 0.659922 19.2198C0.979922 18.6998 1.55992 18.4198 2.15992 18.4798ZM17.8399 9.35781C18.6999 9.35781 19.3999 10.0598 19.3999 10.9198C19.3999 11.7798 18.6999 12.4798 17.8399 12.4798H2.15992C1.29792 12.4798 0.599922 11.7798 0.599922 10.9198C0.599922 10.0598 1.29792 9.35781 2.15992 9.35781H17.8399ZM17.8379 0.321805C18.6999 0.321805 19.3999 1.0218 19.3999 1.8798C19.3999 2.7618 18.6999 3.4618 17.8379 3.4618L2.15992 3.4398C1.29792 3.4398 0.599922 2.7398 0.599922 1.8798C0.599922 1.0198 1.29792 0.319804 2.15992 0.319804V0.299805L17.8379 0.321805Z" fill="url(#paint0_linear_107_4)"/>
<defs>
<linearGradient id="paint0_linear_107_4" x1="19.3999" y1="0.299803" x2="-1.78808" y2="19.1509" gradientUnits="userSpaceOnUse">
<stop stop-color="#916BE3"/>
<stop offset="1" stop-color="#61CCE3"/>
</linearGradient>
</defs>
</svg>
