<svg width="56" height="56" viewBox="0 0 56 56" fill="none" xmlns="http://www.w3.org/2000/svg">
<circle cx="28" cy="28" r="28" fill="#151B26"/>
<path d="M40 41V38C40 36.4087 39.3679 34.8826 38.2426 33.7574C37.1174 32.6321 35.5913 32 34 32H22C20.4087 32 18.8826 32.6321 17.7574 33.7574C16.6321 34.8826 16 36.4087 16 38V41" fill="url(#paint0_linear_208_6)"/>
<path d="M40 41V38C40 36.4087 39.3679 34.8826 38.2426 33.7574C37.1174 32.6321 35.5913 32 34 32H22C20.4087 32 18.8826 32.6321 17.7574 33.7574C16.6321 34.8826 16 36.4087 16 38V41" stroke="url(#paint1_linear_208_6)" stroke-linejoin="round"/>
<path d="M27.5 27C30.5376 27 33 24.3137 33 21C33 17.6863 30.5376 15 27.5 15C24.4624 15 22 17.6863 22 21C22 24.3137 24.4624 27 27.5 27Z" fill="url(#paint2_linear_208_6)" stroke="url(#paint3_linear_208_6)" stroke-linecap="round" stroke-linejoin="round"/>
<defs>
<linearGradient id="paint0_linear_208_6" x1="38.2857" y1="32.8182" x2="33.3573" y2="46.0626" gradientUnits="userSpaceOnUse">
<stop stop-color="#5390E3"/>
<stop offset="1" stop-color="#1357B3"/>
</linearGradient>
<linearGradient id="paint1_linear_208_6" x1="38.2857" y1="32.8182" x2="33.3573" y2="46.0626" gradientUnits="userSpaceOnUse">
<stop stop-color="#5390E3"/>
<stop offset="1" stop-color="#1357B3"/>
</linearGradient>
<linearGradient id="paint2_linear_208_6" x1="32.2143" y1="16.0909" x2="22.1936" y2="25.3478" gradientUnits="userSpaceOnUse">
<stop stop-color="#5390E3"/>
<stop offset="1" stop-color="#1357B3"/>
</linearGradient>
<linearGradient id="paint3_linear_208_6" x1="32.2143" y1="16.0909" x2="22.1936" y2="25.3478" gradientUnits="userSpaceOnUse">
<stop stop-color="#5390E3"/>
<stop offset="1" stop-color="#1357B3"/>
</linearGradient>
</defs>
</svg>
