<svg width="56" height="56" viewBox="0 0 56 56" fill="none" xmlns="http://www.w3.org/2000/svg">
<circle cx="28" cy="28" r="28" fill="#151B26"/>
<path d="M15 18C15 17.4477 15.4477 17 16 17H23.1C24.5322 17 25.9057 17.5689 26.9184 18.5816C27.9311 19.5943 28.5 20.9678 28.5 22.4V41.3C28.5 40.2259 28.0733 39.1957 27.3138 38.4362C26.5543 37.6767 25.5241 37.25 24.45 37.25H16C15.4477 37.25 15 36.8023 15 36.25V18Z" fill="url(#paint0_linear_209_13)"/>
<path d="M42 18C42 17.4477 41.5523 17 41 17H33.9C32.4678 17 31.0943 17.5689 30.0816 18.5816C29.0689 19.5943 28.5 20.9678 28.5 22.4V41.3C28.5 40.2259 28.9267 39.1957 29.6862 38.4362C30.4457 37.6767 31.4759 37.25 32.55 37.25H41C41.5523 37.25 42 36.8023 42 36.25V18Z" fill="url(#paint1_linear_209_13)"/>
<defs>
<linearGradient id="paint0_linear_209_13" x1="27.5357" y1="19.2091" x2="10.1822" y2="28.9247" gradientUnits="userSpaceOnUse">
<stop stop-color="#5390E3"/>
<stop offset="1" stop-color="#1357B3"/>
</linearGradient>
<linearGradient id="paint1_linear_209_13" x1="41.0357" y1="19.2091" x2="23.6822" y2="28.9247" gradientUnits="userSpaceOnUse">
<stop stop-color="#5390E3"/>
<stop offset="1" stop-color="#1357B3"/>
</linearGradient>
</defs>
</svg>
